<svg width="265" height="110" viewBox="0 0 265 110" fill="none" xmlns="http://www.w3.org/2000/svg">
<rect width="265" height="110" fill="#171717"/>
<path fill-rule="evenodd" clip-rule="evenodd" d="M49.8203 33.9789C49.4175 34.0957 48.5955 34.625 47.9933 35.155L46.8988 36.1186L45.4147 35.4218C42.7533 34.1726 41.9617 34.0785 34.1157 34.0785C27.1301 34.0785 26.8716 34.095 25.927 34.6002C24.8237 35.1903 23.7904 36.3158 23.3188 37.4411C23.0653 38.0461 23 40.6914 23 50.3434C23 62.4843 23 62.4843 23.6244 63.7375C24.0872 64.6661 24.5619 65.1923 25.4573 65.7686C26.1609 66.2216 26.8593 66.9126 27.1291 67.4228C27.3841 67.9045 28.0759 68.6344 28.6664 69.0447C29.7404 69.7906 29.7404 69.7906 37.2314 69.8592C45.3854 69.9337 46.6679 69.7977 49.0098 68.611C50.4392 67.8865 50.7091 67.8761 51.2847 68.5232C52.2684 69.6289 53.3854 69.8982 57.0093 69.9037C60.6482 69.9094 61.2454 69.7625 62.5504 68.5414C63.1961 67.9376 63.1961 67.9376 65.0337 68.7881C67.4638 69.9127 68.3367 70.1317 71.0104 70.288C75.0319 70.5231 78.9309 69.4293 81.1198 67.4521C82.2164 66.4611 82.3735 66.4297 82.9643 67.0822C83.7301 67.9286 85.9688 69.1369 87.8022 69.6939C89.7292 70.279 93.2394 70.441 95.9616 70.0704C97.3806 69.8772 97.3806 69.8772 97.8208 70.6246C98.063 71.0354 98.7339 71.6716 99.3117 72.0381C99.8897 72.4045 100.677 73.179 101.061 73.7589C101.445 74.3391 102.202 75.1203 102.742 75.4949C103.697 76.158 103.816 76.1784 107.174 76.2545C111.062 76.3425 111.998 76.1592 113.243 75.0661C114.245 74.1861 114.749 73.2687 115.103 71.6827C115.366 70.5002 115.366 70.5002 117.248 70.2133C121.135 69.6208 124.294 67.2695 125.935 63.7461C126.356 62.8431 126.757 62.1042 126.826 62.1042C126.895 62.1042 128.335 63.4705 130.026 65.1403C134.36 69.4203 136.286 70.271 141.607 70.2542C144.771 70.2443 146.305 69.9037 148.758 68.6668C150.234 67.923 150.234 67.923 150.887 68.5485C152.09 69.701 152.988 69.9089 156.763 69.9089C160.066 69.9089 160.28 69.8798 161.383 69.2796C162.54 68.65 162.54 68.65 163.816 69.2961C165.073 69.9318 165.154 69.9408 168.881 69.8663C172.66 69.7909 172.671 69.789 173.683 69.0771C174.645 68.4005 175.74 66.7421 176.077 65.4522C176.218 64.9127 176.218 64.9127 177.242 65.6431C177.805 66.0444 178.691 66.9209 179.211 67.5902C179.731 68.2597 180.626 69.0551 181.199 69.3581C182.24 69.9079 182.26 69.9089 191.554 69.9089C202.006 69.9089 201.856 69.9302 203.626 68.1971C204.627 67.217 204.627 67.217 205.163 67.7085C205.921 68.4026 207.474 69.1438 209.007 69.5433C210.021 69.8074 212.101 69.8859 218.179 69.8895C226.039 69.894 226.039 69.894 227.259 69.2824C228.48 68.6706 228.48 68.6706 229.779 69.3063C231.05 69.928 231.161 69.9403 234.866 69.8663C238.644 69.7909 238.656 69.789 239.668 69.0771C240.3 68.6322 240.931 67.8873 241.343 67.099C242.003 65.8344 242.003 65.8344 242 59.5349C241.994 50.2305 241.762 49.5352 237.063 44.7737C234.695 42.3746 233.745 41.5825 232.452 40.9305C231.556 40.479 230.629 40.1093 230.391 40.1093C229.993 40.1093 227.619 38.231 226.512 37.0395C223.46 33.7545 223.397 33.7263 219.062 33.7263C215.338 33.7263 214.567 33.9394 213.144 35.362L212.018 36.488L211.139 35.554C209.631 33.9527 208.669 33.6762 204.916 33.7653C201.956 33.8353 201.578 33.8954 200.492 34.4663C199.304 35.0905 199.304 35.0905 198.363 34.5846C197.46 34.0988 197.082 34.0756 188.952 34.0056C178.652 33.9169 178.295 33.9664 176.59 35.712C174.987 37.3538 174.836 38.0463 174.836 43.7617C174.836 46.3055 174.784 48.387 174.72 48.387C174.657 48.387 173.14 46.8913 171.35 45.0634C168.638 42.2939 167.819 41.604 166.44 40.9255C164.357 39.901 162.264 39.5829 159.893 39.9298C158.941 40.0691 156.458 40.1557 154.374 40.1223C150.06 40.053 149.142 40.2276 147.681 41.395L146.659 42.2109L145.196 41.4066C144.391 40.9643 142.988 40.4272 142.079 40.2132C139.943 39.7108 136.186 39.7085 134.063 40.208C130.659 41.0088 127.575 43.3594 126.119 46.2625C125.696 47.1056 125.317 47.8331 125.276 47.8787C125.235 47.9244 123.89 46.6383 122.288 45.0208C120.686 43.4031 118.95 41.8152 118.43 41.4919C116.14 40.0691 113.347 39.5178 110.448 39.9161C109.504 40.0457 106.924 40.1687 104.712 40.1897C100.404 40.2304 100.419 40.2266 98.168 41.8148C97.8473 42.0411 97.4249 41.9335 95.9212 41.2422C93.4627 40.1119 91.9432 39.7931 89.103 39.812C85.4301 39.8366 82.8515 40.6041 80.499 42.3724C79.7322 42.9488 79.0109 43.4204 78.8962 43.4204C78.7815 43.4204 78.0511 42.9434 77.273 42.3601C74.1978 40.0549 69.6734 39.2693 64.4559 40.1346C63.9794 40.2136 63.7495 40.0564 63.3486 39.3778C63.1112 38.9758 62.4508 38.3512 61.8818 37.9903C61.3125 37.6291 60.4997 36.8181 60.0751 36.1879C59.5411 35.3949 58.9125 34.8388 58.0348 34.3829C56.8265 33.7552 56.6182 33.7247 53.6595 33.745C51.9507 33.7568 50.2233 33.8621 49.8203 33.9789Z" fill="#3F60E0"/>
<path fill-rule="evenodd" clip-rule="evenodd" d="M49.8203 33.9788C49.4175 34.0957 48.5955 34.625 47.9933 35.155L46.8988 36.1185L45.4147 35.4218C42.7533 34.1725 41.9617 34.0784 34.1157 34.0784C27.1301 34.0784 26.8716 34.095 25.927 34.6001C24.8237 35.1902 23.7904 36.3157 23.3188 37.441C23.0653 38.046 23 40.6946 23 50.3627C23 62.5233 23 62.5233 23.6608 63.7881C24.1418 64.7088 24.6357 65.2473 25.4745 65.7665C26.6275 66.4795 26.6275 66.4795 33.7697 66.5483C41.7222 66.625 43.2221 66.4566 45.7243 65.2062C47.1237 64.5068 47.1237 64.5068 48.0867 65.3114C49.4745 66.471 50.3278 66.6472 54.1188 66.558C57.689 66.4738 57.5188 66.5254 59.7897 64.8387C59.9914 64.6889 60.5363 64.855 61.4696 65.3509C63.6348 66.5013 65.5382 66.9156 68.6454 66.913C72.607 66.9095 75.3597 66.0588 77.7905 64.0866C78.3328 63.6467 78.847 63.2867 78.9333 63.2867C79.0196 63.2867 79.5338 63.6467 80.0761 64.0866C83.6433 66.9807 89.7782 67.8418 94.5837 66.1226C95.3415 65.8516 96.1248 65.5751 96.3244 65.5082C96.6219 65.4086 96.7324 65.775 96.9374 67.54C97.2463 70.1997 97.9293 71.3267 99.8358 72.3228C101.041 72.9522 101.253 72.9834 104.338 72.9834C107.35 72.9834 107.661 72.9406 108.809 72.3685C110.39 71.5812 111.452 70.1039 111.659 68.4051C111.807 67.189 111.807 67.189 113.581 66.8955C115.873 66.5164 117.162 66.068 118.586 65.1544C120.863 63.6933 122.707 60.9413 123.42 57.941C123.936 55.7668 123.94 50.9577 123.428 48.8008C121.957 42.6124 116.752 39.05 110.448 39.9161C109.504 40.0457 106.924 40.1686 104.712 40.1897C100.404 40.2304 100.419 40.2266 98.168 41.8147C97.8473 42.041 97.4249 41.9334 95.9212 41.2421C93.4627 40.1119 91.9432 39.7931 89.103 39.812C85.4301 39.8366 82.8515 40.604 80.4989 42.3724C79.7322 42.9487 79.0109 43.4203 78.8962 43.4203C78.7815 43.4203 78.0511 42.9433 77.273 42.3601C73.7319 39.7058 67.7192 39.0031 63.027 40.6958C62.1183 41.0236 61.3234 41.2918 61.2607 41.2918C61.1978 41.2918 61.0774 40.4733 60.9928 39.4728C60.7463 36.5575 59.754 35.0419 57.4653 34.0857C56.4895 33.678 51.1159 33.6028 49.8203 33.9788ZM201.443 34.0183C201.052 34.1598 200.423 34.4639 200.044 34.6943C199.376 35.1006 199.327 35.0977 198.389 34.5959C197.454 34.0957 197.14 34.076 188.952 34.0056C178.634 33.9169 178.297 33.9637 176.574 35.7285C174.781 37.5645 174.788 37.5061 174.878 51.1067C174.953 62.5311 174.961 62.7092 175.476 63.6708C176.066 64.7741 177.191 65.8074 178.317 66.279C179.346 66.7103 196.647 66.7427 198.072 66.3159C198.617 66.1524 199.459 65.5872 200.074 64.9723C200.962 64.0847 201.2 63.9563 201.526 64.1887C204.614 66.3901 205.632 66.5713 214.903 66.5715C222.804 66.5718 223.433 66.5003 224.566 65.4753C224.921 65.1544 225.077 65.1348 225.403 65.371C226.849 66.4223 227.626 66.5874 231.124 66.5874C235.084 66.5874 235.88 66.352 237.319 64.7561C238.651 63.2794 238.742 62.6212 238.636 55.2676C238.55 49.2719 238.501 48.6279 238.025 47.3416C237.269 45.2979 236.533 44.1568 235.088 42.7908C233.081 40.8919 231.227 40.0977 227.99 39.7488C226.71 39.6107 226.63 39.5651 226.629 38.9689C226.625 36.9271 224.827 34.5062 222.923 33.9774C221.745 33.6503 216.37 33.6532 215.188 33.9812C214.628 34.1366 213.831 34.6751 213.144 35.3619L212.018 36.4879L211.141 35.5566C209.684 34.0094 208.777 33.7319 205.227 33.7475C203.536 33.7549 201.833 33.8767 201.443 34.0183ZM136.049 39.8787C133.887 40.1322 132.601 40.5109 130.971 41.3727C128.121 42.8795 125.904 45.7452 125.049 49.0262C124.632 50.6259 124.578 55.2124 124.951 57.2715C125.373 59.5975 126.596 61.8355 128.334 63.4615C130.944 65.9027 133.74 66.9095 137.941 66.9206C140.98 66.9286 142.727 66.5739 145.021 65.4822C146.126 64.9564 146.883 64.7228 147.056 64.8531C149.28 66.5256 149.098 66.4738 153.022 66.5557C156.594 66.6302 156.696 66.6183 157.941 65.9883C159.213 65.3448 159.213 65.3448 160.609 65.9713C161.905 66.5528 162.241 66.5973 165.287 66.5926C167.962 66.5883 168.746 66.507 169.528 66.1517C170.694 65.622 172.152 63.9759 172.47 62.8291C172.853 61.4526 172.761 50.6898 172.35 48.7417C171.087 42.7551 165.859 39.0566 159.893 39.9298C158.941 40.0691 156.458 40.1556 154.374 40.1223C150.06 40.053 149.142 40.2275 147.681 41.3949L146.659 42.2109L145.196 41.4065C142.85 40.1173 139.205 39.5083 136.049 39.8787Z" fill="black"/>
<path fill-rule="evenodd" clip-rule="evenodd" d="M50.955 38.5012C50.546 38.9101 50.546 61.4116 50.955 61.8205C51.1387 62.0043 52.0935 62.1043 53.6665 62.1043C55.8246 62.1043 56.1214 62.0535 56.339 61.6469C56.4977 61.3504 56.5838 57.3109 56.5838 50.1609C56.5838 43.0109 56.4977 38.9714 56.339 38.6748C56.1214 38.2682 55.8246 38.2174 53.6665 38.2174C52.0935 38.2174 51.1387 38.3174 50.955 38.5012ZM202.55 38.5201C202.398 38.7036 202.258 40.0326 202.219 41.6614L202.152 44.4848L200.733 44.5529C198.997 44.6361 198.723 44.9317 198.723 46.7242C198.723 48.6125 199.103 49.0554 200.798 49.1441L202.152 49.2148L202.28 53.2354C202.36 55.7419 202.536 57.6569 202.748 58.3203C203.227 59.8176 204.741 61.2673 206.312 61.734C207.851 62.1909 212.671 62.2524 213.102 61.8205C213.273 61.6495 213.386 60.822 213.386 59.7393C213.386 58.6566 213.273 57.829 213.102 57.6581C212.927 57.483 212.068 57.3742 210.861 57.3742C208.137 57.3742 208.065 57.2532 208.065 52.6553V49.2148L210.299 49.1463C211.527 49.1084 212.672 48.9625 212.841 48.8215C213.043 48.6543 213.15 47.972 213.15 46.8498C213.15 45.7276 213.043 45.0453 212.841 44.8781C212.672 44.7371 211.527 44.5912 210.299 44.5533L208.065 44.4848L207.947 41.4102L207.828 38.3356L205.321 38.2689C203.444 38.2188 202.748 38.282 202.55 38.5201ZM216.272 38.5012C215.863 38.9101 215.863 61.4116 216.272 61.8205C216.679 62.2276 221.519 62.2096 221.859 61.7997C222.017 61.6089 222.138 59.4482 222.183 56.0096C222.255 50.5239 222.255 50.5239 222.995 49.7843C224.437 48.3438 226.993 48.6801 227.713 50.4054C227.969 51.0175 228.049 52.446 228.049 56.3734C228.049 60.0739 228.13 61.6171 228.333 61.8205C228.769 62.2562 233.582 62.207 233.951 61.7631C234.16 61.5117 234.213 59.8119 234.155 55.3183C234.08 49.4854 234.052 49.1654 233.525 48.1023C232.881 46.8018 231.229 45.1978 229.986 44.6671C228.829 44.1728 225.861 44.1827 224.666 44.6851C224.17 44.8932 223.492 45.2778 223.159 45.5396C222.827 45.8014 222.46 45.9575 222.345 45.8865C222.231 45.8156 222.137 44.1889 222.137 42.2713C222.137 39.875 222.048 38.6963 221.853 38.5012C221.464 38.1119 216.661 38.1119 216.272 38.5012ZM27.7747 38.7552C27.5585 39.0156 27.5041 41.8763 27.5505 50.5426L27.612 61.9861H34.831C42.0503 61.9861 42.0503 61.9861 43.6276 61.2092C46.1866 59.9488 47.3601 58.0249 47.3601 55.0901C47.3601 53.2449 46.9836 52.2851 45.7225 50.9174C45.1923 50.342 44.7585 49.7702 44.7585 49.6465C44.7585 49.5228 45.0908 49.1089 45.4971 48.7269C46.5292 47.7563 46.888 46.7668 46.8819 44.9062C46.8753 42.8815 46.3566 41.698 44.9227 40.4356C43.0269 38.767 42.2509 38.6209 34.6946 38.5092C29.0937 38.4265 28.0157 38.4648 27.7747 38.7552ZM179.721 38.8865C179.368 39.276 179.33 40.424 179.33 50.4461C179.33 59.5707 179.388 61.6216 179.653 61.8418C179.884 62.0339 182.396 62.0927 188.463 62.0483L196.949 61.9861L197.017 59.8344C197.067 58.2384 197.001 57.6134 196.761 57.4147C196.546 57.2361 194.59 57.1254 190.899 57.0831L185.36 57.0195V54.8909V52.7624L190.427 52.6986C193.678 52.6574 195.606 52.541 195.807 52.3738C196.019 52.1981 196.121 51.5153 196.121 50.2791C196.121 49.0429 196.019 48.3601 195.807 48.1844C195.606 48.0172 193.678 47.9008 190.427 47.8597L185.36 47.7958V45.6673V43.5387L191.037 43.4205L196.713 43.3022L196.781 41.2094C196.825 39.8698 196.751 38.9974 196.575 38.7852C196.349 38.513 194.858 38.4539 188.206 38.4539C180.665 38.4539 180.086 38.4835 179.721 38.8865ZM39.1893 43.2821C40.1661 43.6903 40.5015 44.2686 40.5015 45.5443C40.5015 46.2538 40.3489 46.6691 39.9367 47.0813C39.2305 47.7875 38.3218 47.959 35.7714 47.8677L33.7611 47.7958L33.6923 45.686C33.6542 44.5257 33.6776 43.4347 33.7438 43.2618C33.915 42.8157 38.1102 42.8314 39.1893 43.2821ZM66.6678 44.3783C63.7262 44.8329 61.5487 46.3818 60.3962 48.8397C59.8272 50.0528 59.7766 50.4123 59.7766 53.2354C59.7766 56.875 60.1361 58.1947 61.5716 59.8254C63.4124 61.9168 66.7523 62.8848 70.3672 62.3747C75.3248 61.6753 77.6327 58.8552 77.6327 53.4968C77.6327 49.651 76.5819 47.1696 74.3542 45.7541C72.3832 44.5015 69.3659 43.9616 66.6678 44.3783ZM87.4244 44.3658C83.7219 44.9088 81.517 46.6973 80.5809 49.917C79.992 51.9425 80.1798 56.3048 80.9298 58.0192C82.3554 61.2794 86.3455 63.0243 90.9015 62.3799C94.3057 61.8986 96.2056 60.6271 97.4063 58.0275C98.0539 56.6252 98.0903 56.3767 98.0893 53.3537C98.0884 50.4059 98.0409 50.0594 97.4697 48.8397C96.3014 46.3444 94.2123 44.8788 91.1134 44.3807C89.4226 44.1089 89.1833 44.108 87.4244 44.3658ZM111.453 44.2532C111.258 44.2982 110.701 44.3996 110.217 44.4786C109.732 44.5578 108.851 44.9921 108.259 45.4435C107.317 46.163 107.167 46.2131 107.054 45.8477C106.718 44.7617 106.627 44.7234 104.218 44.6529C102.226 44.5945 101.837 44.6449 101.582 44.9937C101.148 45.5878 101.147 67.5044 101.582 68.0985C101.839 68.4505 102.241 68.4978 104.479 68.4393L107.077 68.3717L107.139 64.8241C107.173 62.873 107.25 61.1411 107.311 60.9755C107.388 60.7645 107.711 60.8842 108.39 61.3764C111.694 63.7696 116.88 62.2633 118.582 58.416C119.643 56.0172 119.643 50.6902 118.582 48.2913C117.936 46.8295 116.597 45.4464 115.294 44.8927C114.2 44.4282 112.163 44.0891 111.453 44.2532ZM135.937 44.3935C133.163 44.7974 130.932 46.4146 129.814 48.8312C129.368 49.7974 129.31 50.3368 129.317 53.4719C129.324 56.5801 129.387 57.155 129.828 58.1143C131.299 61.3113 135.316 63.0222 139.848 62.3813C143.23 61.9031 145.438 60.3433 146.465 57.707C146.922 56.533 147.011 55.8571 147.018 53.4719C147.029 49.9929 146.645 48.6759 145.127 46.987C143.828 45.5424 142.133 44.6874 139.952 44.3757C138.078 44.1082 137.89 44.109 135.937 44.3935ZM159.646 44.4538C158.872 44.6241 157.832 45.0815 157.22 45.5209C156.255 46.2136 156.136 46.2474 156.015 45.8603C155.672 44.7608 155.586 44.7234 153.206 44.6534C151.71 44.6092 150.785 44.6815 150.57 44.8596C150.121 45.2326 150.076 61.3733 150.523 61.8205C150.709 62.0062 151.688 62.1043 153.353 62.1043C155.628 62.1043 155.925 62.0556 156.144 61.6469C156.291 61.3721 156.389 59.1573 156.389 56.1045C156.389 53.3076 156.492 50.7464 156.619 50.413C157.258 48.7326 160.125 48.3525 161.4 49.7794C162.065 50.5232 162.065 50.5232 162.065 55.8564C162.065 59.0802 162.161 61.3702 162.31 61.6469C162.528 62.0556 162.825 62.1043 165.1 62.1043C166.765 62.1043 167.744 62.0062 167.93 61.8205C168.39 61.3603 168.319 50.8034 167.844 49.1122C166.826 45.4833 163.516 43.6024 159.646 44.4538ZM69.6695 48.6413C71.0477 49.024 71.4717 50.1566 71.4779 53.4719C71.484 56.7042 71.1484 57.5587 69.6731 58.0689C68.8607 58.3496 68.5187 58.3572 67.7016 58.1124C66.8644 57.8614 66.6409 57.6528 66.2405 56.7475C65.8384 55.8391 65.7795 55.2769 65.8467 52.9954C65.9318 50.1006 66.223 49.3352 67.4857 48.6863C68.1843 48.3272 68.5142 48.3204 69.6695 48.6413ZM90.9625 49.0488C91.79 49.7848 92.0597 50.8607 92.0542 53.4052C92.0474 56.5893 91.6096 57.6796 90.1634 58.1128C89.3484 58.3572 89.0057 58.3494 88.1938 58.0689C86.7106 57.5561 86.384 56.7118 86.3838 53.3894C86.3833 50.29 86.7232 49.2428 87.9019 48.7118C88.7864 48.3133 90.3261 48.4826 90.9625 49.0488ZM139.257 48.7328C140.497 49.2508 141.004 50.5558 141.009 53.2354C141.016 56.7946 140.357 58.0431 138.37 58.2391C137.106 58.364 136.341 57.9795 135.707 56.9008C135.293 56.1953 135.222 55.6731 135.223 53.3537C135.224 50.242 135.557 49.2884 136.833 48.7333C137.806 48.3102 138.245 48.3102 139.257 48.7328ZM112.253 49.5441C112.975 50.2224 113.345 51.5241 113.343 53.3811C113.341 56.376 112.378 57.8506 110.429 57.8437C108.203 57.8359 107.317 56.6255 107.316 53.5902C107.316 51.1286 107.703 49.9272 108.698 49.3016C109.68 48.6846 111.468 48.8066 112.253 49.5441ZM39.1309 52.4171C40.7812 52.8755 41.4867 54.7516 40.6308 56.4067C40.1119 57.4104 39.2735 57.6363 36.3522 57.5601L33.7611 57.4925L33.693 55.1442C33.6554 53.8527 33.6785 52.6555 33.7445 52.4836C33.8928 52.0971 37.8044 52.0486 39.1309 52.4171Z" fill="white"/>
</svg>
